#!OML:ASF I:\golf\golf\golf 2\Subject 1\2002-09-07\Subject1.ASF
:FULLY-SPECIFIED
:DEGREES
246
root -7.32422 17.6263 4.65182 -6.28539 39.9514 -15.946
lowerback 3.13117 -8.9222 -18.733
upperback 1.18003 -12.1713 -3.43718
thorax 2.61968 -6.20588 6.23952
lowerneck -2.19654 20.3665 4.82054
upperneck 17.6335 30.4172 -12.7691
head 8.64323 13.8048 -1.83356
rclavicle -1.35174e-013 -3.18055e-015
rhumerus 3.26712 -12.6124 -84.5631
rradius 95.8721
rwrist -28.2575
rhand -62.7058 24.2751
rfingers 7.12502
rthumb -34.7238 -2.34506
lclavicle -1.35174e-013 -3.18055e-015
lhumerus 85.0979 -57.1613 47.4438
lradius 26.819
lwrist 1.65654
lhand -12.5242 8.91088
lfingers 7.12502
lthumb -166.448 218.45
rfemur -25.7128 11.346 31.445
rtibia 32.2093
rfoot -0.951337 28.8389
rtoes 35.5144
lfemur -2.09049 17.6785 13.6314
ltibia 41.4401
lfoot 6.88661 10.7585
ltoes -35.9697
247
root -7.3233 17.632 4.69711 -5.94589 39.5014 -15.5659
lowerback 3.05916 -8.96163 -18.7925
upperback 0.910399 -12.2351 -3.66338
thorax 2.34039 -6.19264 6.04833
lowerneck -1.59436 20.4272 5.1354
upperneck 17.1572 30.3857 -12.781
head 8.42376 13.8759 -1.95883
rclavicle -1.02175e-013 -8.5875e-014
rhumerus 4.00238 -13.3563 -83.6449
rradius 96.8043
rwrist -27.3316
rhand -62.2482 24.7957
rfingers 7.12502
rthumb -34.2894 -1.92331
lclavicle -1.02175e-013 -8.5875e-014
lhumerus 85.95 -57.1246 47.8267
lradius 27.1718
lwrist 1.06246
lhand -12.7459 8.78671
lfingers 7.12502
lthumb -166.662 218.34
rfemur -25.7881 11.453 31.3795
rtibia 32.5246
rfoot -1.27893 29.2391
rtoes 35.0861
lfemur -1.84433 17.5718 13.5048
ltibia 41.3349
lfoot 7.60414 10.805
ltoes -35.5682
248
root -7.31982 17.6328 4.74122 -5.60379 39.0577 -15.0602
lowerback 3.08269 -9.12129 -18.8414
upperback 1.16505 -12.414 -3.76278
thorax 2.63828 -6.31509 5.91884
lowerneck -3.46324 20.8208 3.96077
upperneck 17.0834 30.8665 -12.2595
head 8.48869 13.9713 -1.43723
rclavicle 3.97569e-016 -2.22639e-014
rhumerus 6.18827 -13.679 -82.9955
rradius 97.2653
rwrist -26.6896
rhand -61.8918 25.9418
rfingers 7.12502
rthumb -33.9509 -0.852854
lclavicle 3.97569e-016 -2.22639e-014
lhumerus 88.2825 -55.8024 46.7852
lradius 27.5031
lwrist 0.826007
lhand -13.2754 8.80591
lfingers 7.12502
lthumb -167.172 218.392
rfemur -25.7572 11.6817 31.1925
rtibia 32.7877
rfoot -1.29707 29.5439
rtoes 35.0086
lfemur -1.53082 17.4959 13.2655
ltibia 41.2656
lfoot 8.41689 11.0809
ltoes -34.6573
249
root -7.31448 17.631 4.78366 -5.30507 38.535 -14.6422
lowerback 2.96073 -9.20916 -18.8869
upperback 1.0211 -12.5157 -3.92396
thorax 2.54497 -6.34425 5.75795
lowerneck -3.4511 20.9757 3.88648
upperneck 16.7955 31.0319 -12.2811
head 8.39521 14.0623 -1.42847
rclavicle -1.47101e-014 -1.90833e-014
rhumerus 7.21415 -14.2083 -82.2359
rradius 97.885
rwrist -25.6686
rhand -61.5888 25.3117
rfingers 7.12502
rthumb -33.6631 -1.5462
lclavicle -1.47101e-014 -1.90833e-014
lhumerus 89.8428 -55.2344 46.2942
lradius 27.8077
lwrist 0.705605
lhand -13.6103 8.84271
lfingers 7.12502
lthumb -167.495 218.449
rfemur -25.705 11.9627 31.0752
rtibia 32.9821
rfoot -1.08048 29.7965
rtoes 35.4384
lfemur -1.2044 17.4765 13.1025
ltibia 41.254
lfoot 8.94489 11.6185
ltoes -32.9678
250
root -7.30933 17.6289 4.82133 -5.0005 37.9883 -14.3898
lowerback 2.81279 -9.30185 -18.8431
upperback 0.840646 -12.6265 -3.95473
thorax 2.43902 -6.37881 5.6875
lowerneck -3.60796 21.1436 3.61877
upperneck 16.623 31.2222 -12.1612
head 8.31725 14.15 -1.33938
rclavicle -1.62208e-013 -1.20861e-013
rhumerus 8.28793 -14.6776 -81.4992
rradius 98.6265
rwrist -23.8819
rhand -61.6852 22.9166
rfingers 7.12502
rthumb -33.7546 -3.92124
lclavicle -1.62208e-013 -1.20861e-013
lhumerus 91.0978 -54.5873 46.246
lradius 28.0368
lwrist 0.47313
lhand -13.4003 8.59738
lfingers 7.12502
lthumb -167.293 218.191
rfemur -25.7796 12.1174 31.0834
rtibia 33.1415
rfoot -0.614458 30.1181
rtoes 36.4489
lfemur -1.01395 17.5363 13.0395
ltibia 41.2714
lfoot 9.44589 11.978
ltoes -31.9446
251
root -7.30559 17.6271 4.85592 -4.72052 37.5369 -14.1494
lowerback 2.75363 -9.39248 -18.8953
upperback 0.683516 -12.7556 -3.91107
thorax 2.35122 -6.42789 5.74992
lowerneck -3.69839 21.2701 3.28913
upperneck 16.3256 31.3459 -12.1172
head 8.1838 14.2124 -1.2902
rclavicle -1.20861e-013 -6.04305e-014
rhumerus 9.62347 -15.1972 -80.6481
rradius 99.3442
rwrist -22.3393
rhand -61.4068 22.0234
rfingers 7.12502
rthumb -33.4901 -4.87214
lclavicle -1.20861e-013 -6.04305e-014
lhumerus 92.0518 -53.9525 46.5902
lradius 28.3364
lwrist 0.229723
lhand -12.867 8.21481
lfingers 7.12502
lthumb -166.779 217.776
rfemur -25.8563 12.1015 31.0938
rtibia 33.2957
rfoot -0.155683 30.5516
rtoes 37.3536
lfemur -0.876886 17.5583 12.9471
ltibia 41.2891
lfoot 10.0183 12.1612
ltoes -31.935
252
root -7.30359 17.627 4.89228 -4.45994 37.1465 -13.8513
lowerback 2.75855 -9.49352 -18.9461
upperback 0.642573 -12.8965 -3.90364
thorax 2.34959 -6.49504 5.76973
lowerneck -4.22759 21.4244 2.79787
upperneck 16.0679 31.5297 -12.0464
head 8.11198 14.2682 -1.15975
rclavicle 7.03698e-014 1.27222e-014
rhumerus 11.2308 -15.7255 -79.836
rradius 99.8245
rwrist -21.3142
rhand -60.865 23.6472
rfingers 7.12502
rthumb -32.9749 -3.35828
lclavicle 7.03698e-014 1.27222e-014
lhumerus 93.3431 -53.153 46.3788
lradius 28.8439
lwrist 0.424872
lhand -12.1862 8.19571
lfingers 7.12502
lthumb -166.122 217.713
rfemur -25.8647 12.2477 31.0321
rtibia 33.4465
rfoot -0.0968767 30.8201
rtoes 37.5913
lfemur -0.707227 17.5707 12.8123
ltibia 41.2888
lfoot 10.6909 12.163
ltoes -32.6754
253
root -7.30273 17.6282 4.9292 -4.11891 36.7796 -13.4757
lowerback 2.71312 -9.60257 -19.0387
upperback 0.476865 -13.0501 -3.97967
thorax 2.23108 -6.54922 5.7288
lowerneck -4.13097 21.5504 2.74718
upperneck 15.6189 31.6429 -12.1935
head 7.9717 14.3458 -1.21298
rclavicle 2.50469e-014 -6.36111e-015
rhumerus 12.3511 -16.2277 -78.9797
rradius 100.285
rwrist -20.0842
rhand -60.7276 23.9997
rfingers 7.12502
rthumb -32.8442 -3.03325
lclavicle 2.50469e-014 -6.36111e-015
lhumerus 94.5468 -52.56 46.0803
lradius 29.2656
lwrist 0.770619
lhand -11.3365 8.38543
lfingers 7.12502
lthumb -165.304 217.845
rfemur -25.916 12.5564 30.8631
rtibia 33.6
rfoot -0.215441 30.9279
rtoes 37.5096
lfemur -0.575597 17.5967 12.573
ltibia 41.248
lfoot 11.4223 11.9457
ltoes -33.6375
254
root -7.30168 17.6287 4.96549 -3.77456 36.4351 -13.1069
lowerback 2.62223 -9.69204 -19.1012
upperback 0.252002 -13.1732 -4.11131
thorax 2.04538 -6.57794 5.62
lowerneck -3.67426 21.6544 2.83228
upperneck 15.153 31.6862 -12.2536
head 7.76673 14.428 -1.30896
rclavicle 9.54166e-015 1.90833e-014
rhumerus 13.1534 -16.8037 -78.0344
rradius 100.872
rwrist -18.901
rhand -60.6336 23.1208
rfingers 7.12502
rthumb -32.7548 -3.9308
lclavicle 9.54166e-015 1.90833e-014
lhumerus 95.8138 -52.1242 45.6861
lradius 29.5875
lwrist 1.1246
lhand -10.3579 8.24886
lfingers 7.12502
lthumb -164.361 217.637
rfemur -25.9849 12.7965 30.6893
rtibia 33.753
rfoot -0.243742 31.0775
rtoes 37.4486
lfemur -0.438103 17.6372 12.3252
ltibia 41.1723
lfoot 12.0821 11.7715
ltoes -34.012
255
root -7.30025 17.63 5.00019 -3.51544 36.0698 -12.8188
lowerback 2.59192 -9.78996 -19.1934
upperback 0.0692755 -13.3209 -4.11212
thorax 1.91597 -6.6295 5.66155
lowerneck -3.48097 21.8028 2.6107
upperneck 14.7764 31.8315 -12.3036
head 7.59652 14.5218 -1.33057
rclavicle -1.61413e-013 -6.99722e-014
rhumerus 14.1399 -17.0941 -77.0019
rradius 101.441
rwrist -18.3972
rhand -60.3462 24.5251
rfingers 7.12502
rthumb -32.4813 -2.58309
lclavicle -1.61413e-013 -6.99722e-014
lhumerus 96.9264 -51.5 45.5181
lradius 29.989
lwrist 1.71283
lhand -9.38667 8.15677
lfingers 7.12502
lthumb -163.426 217.469
rfemur -26.0098 13.0956 30.5794
rtibia 33.9013
rfoot -0.294483 31.1943
rtoes 37.3002
lfemur -0.250828 17.7007 12.1641
ltibia 41.092
lfoot 12.6014 12.1143
ltoes -33.4771
256
root -7.29831 17.6334 5.03142 -3.18818 35.7253 -12.4415
lowerback 2.57012 -9.90805 -19.367
upperback -0.0657357 -13.4926 -4.06602
thorax 1.86975 -6.70289 5.78011
lowerneck -3.54778 21.951 2.23693
upperneck 14.3988 32.0075 -12.443
head 7.46428 14.6014 -1.3286
rclavicle 2.50469e-014 1.59028e-014
rhumerus 15.3881 -17.2727 -76.0174
rradius 101.936
rwrist -18.0358
rhand -59.963 26.2824
rfingers 7.12502
rthumb -32.1166 -0.900068
lclavicle 2.50469e-014 1.59028e-014
lhumerus 97.8634 -50.784 45.6126
lradius 30.3873
lwrist 2.38864
lhand -8.74934 8.29479
lfingers 7.12502
lthumb -162.812 217.555
rfemur -26.0695 13.3141 30.3764
rtibia 34.0458
rfoot -0.323973 31.357
rtoes 37.4889
lfemur -0.0937966 17.7505 11.887
ltibia 41.0133
lfoot 12.8476 12.7663
ltoes -32.6073
257
root -7.29571 17.6382 5.06237 -2.79894 35.4455 -12.0012
lowerback 2.56041 -10.0727 -19.4417
upperback -0.168052 -13.7216 -4.06689
thorax 1.83361 -6.80581 5.79483
lowerneck -3.98642 22.1417 1.67338
upperneck 14.139 32.2488 -12.3874
head 7.37266 14.6895 -1.20622
rclavicle 7.7526e-014 -9.54166e-015
rhumerus 16.7163 -17.4343 -75.0886
rradius 102.42
rwrist -17.3275
rhand -59.7254 26.283
rfingers 7.12502
rthumb -31.8904 -0.944813
lclavicle 7.7526e-014 -9.54166e-015
lhumerus 98.6654 -50.0067 45.7999
lradius 30.7874
lwrist 2.79757
lhand -8.58632 8.41794
lfingers 7.12502
lthumb -162.655 217.664
rfemur -26.1607 13.3603 30.1111
rtibia 34.1807
rfoot -0.319751 31.6175
rtoes 37.8583
lfemur 0.0183612 17.7492 11.5137
ltibia 40.9255
lfoot 12.9927 13.2548
ltoes -32.0929
